<?xml version="1.0" standalone="no"?><svg xmlns="http://www.w3.org/2000/svg" viewBox="0 0 1440 320"><path fill="#ede5ff " fill-opacity="0.7" d="M0,128L24,122.7C48,117,96,107,144,106.7C192,107,240,117,288,117.3C336,117,384,107,432,112C480,117,528,139,576,144C624,149,672,139,720,128C768,117,816,107,864,106.7C912,107,960,117,1008,133.3C1056,149,1104,171,1152,192C1200,213,1248,235,1296,218.7C1344,203,1392,149,1416,122.7L1440,96L1440,0L1416,0C1392,0,1344,0,1296,0C1248,0,1200,0,1152,0C1104,0,1056,0,1008,0C960,0,912,0,864,0C816,0,768,0,720,0C672,0,624,0,576,0C528,0,480,0,432,0C384,0,336,0,288,0C240,0,192,0,144,0C96,0,48,0,24,0L0,0Z"></path></svg>