<?xml version="1.0" encoding="utf-8"?>
<svg viewBox="0 0 500 500" xmlns="http://www.w3.org/2000/svg">
  <g id="SVGRepo_iconCarrier" transform="matrix(0.9999999999999999, 0, 0, 0.9999999999999999, -5.126102924346924, -64.5664291381836)">
    <g>
      <path class="st0" d="M 355.191 281.285 C 354.849 288.208 349.598 296.754 341.134 304.968 L 341.134 413.211 C 341.125 415.999 340.027 418.361 338.171 420.207 C 336.307 422.017 333.889 423.087 331.046 423.105 L 154.644 423.105 C 151.82 423.087 149.393 422.016 147.528 420.207 C 145.673 418.361 144.584 415.999 144.575 413.211 L 144.575 240.233 C 144.584 237.455 145.673 235.083 147.528 233.237 C 149.393 231.427 151.82 230.357 154.644 230.339 L 248.332 230.339 C 255.91 220.389 264.742 210.2 274.747 200.86 C 274.793 200.805 274.83 200.749 274.877 200.694 L 154.644 200.694 C 143.569 200.685 133.389 205.142 126.144 212.268 C 118.862 219.393 114.321 229.361 114.33 240.233 L 114.33 413.212 C 114.321 424.084 118.862 434.071 126.144 441.177 C 133.389 448.302 143.569 452.75 154.644 452.75 L 331.047 452.75 C 342.141 452.75 352.321 448.302 359.566 441.176 C 366.83 434.07 371.38 424.083 371.37 413.211 L 371.37 270.505 C 371.37 270.505 371.296 270.413 371.177 270.32 C 366.589 274.253 361.245 277.999 355.191 281.285 Z" style="fill: rgb(90, 178, 255);"/>
      <path class="st0" d="M 400.665 150.319 C 400.665 150.319 391.398 164.164 330.872 184.643 C 269.154 205.53 231.165 290.496 231.165 290.496 C 222.019 307.903 185.867 380.225 185.867 380.225 C 175.908 398.906 194.155 409.944 204.861 390.654 C 225.378 353.625 238.622 319.79 269.818 318.83 C 315.328 317.428 346.45 277.686 336.657 279.532 C 323.773 285.143 295.365 279.956 312.098 277.372 C 352.265 274.151 377.018 243.961 368.951 241.913 C 354.711 247.395 341.429 242.19 338.826 240.62 C 409.719 232 400.665 150.319 400.665 150.319 Z" style="fill: rgb(255, 155, 102);"/>
    </g>
  </g>
</svg>